<svg width="20" height="20" viewBox="0 0 20 20" fill="none" xmlns="http://www.w3.org/2000/svg">
<g clip-path="url(#clip0_3638_88)">
<path d="M19.9904 10.056C19.9904 4.53614 15.515 0.060791 9.9952 0.060791C4.47535 0.060791 0 4.53614 0 10.056C0 15.0453 3.65491 19.1799 8.43345 19.9296V12.9454H5.8955V10.0552H8.43345V7.85455C8.43345 5.34992 9.92607 3.96558 12.2091 3.96558C13.3019 3.96558 14.4464 4.16132 14.4464 4.16132V6.62097H13.1853C11.9434 6.62097 11.5561 7.39144 11.5561 8.18189V10.056H14.3281L13.885 12.9463H11.5561V19.9304C16.3355 19.1799 19.9904 15.0444 19.9904 10.056Z" fill="#1877F2"/>
</g>
<defs>
<clipPath id="clip0_3638_88">
<rect width="19.9904" height="19.9904" fill="white"/>
</clipPath>
</defs>
</svg>
